# xmcd CD database file
# Copyright (C) 1993-1998 Ti Kan
#
# Track frame offsets:
# 150
# 12279
# 28068
# 44543
# 60869
# 69762
# 82451
# 96444
# 113178
# 126075
# 140355
# 159300
# 174123
# 186001
#
# Disc length: 2693 seconds
#
# Revision: 0
# Processed by: cddbd v1.4b41PL1 Copyright (c) Steve Scherf et al.
# Submitted via: inCDius 1.1b7
#
DISCID=b30a830e
DTITLE=Bobby Valentino - You're Telling Me
DYEAR=1900
DGENRE=
TTITLE0=Guaran-damn-tee
TTITLE1=No Smoke Without Fire
TTITLE2=Sweet Temptation
TTITLE3=You'll Be Sorry
TTITLE4=The Man Who Invented Jazz
TTITLE5=Every Now And Then
TTITLE6=Fancy Meeting You Here
TTITLE7=Just Good Friends
TTITLE8=A Way With Women
TTITLE9=Pink City Boogle
TTITLE10=Break For The Border
TTITLE11=I Made My Excuses And Stayed"
TTITLE12=Expected In Texas
TTITLE13=Morse Code*
EXTD=Produced by: Bobby Valentino and George Shilling except\n* Produced by: B
EXTD=obby Valentino and Geoff Sample\n©1995 Vireo Records, Inc.
EXTT0=
EXTT1=
EXTT2=
EXTT3=
EXTT4=
EXTT5=
EXTT6=
EXTT7=
EXTT8=
EXTT9=
EXTT10=
EXTT11=
EXTT12=
EXTT13=
PLAYORDER=
